<svg xmlns="http://www.w3.org/2000/svg" width="601" height="515" fill="none"><g clip-path="url(#a)"><path fill="#000" stroke="#fff" stroke-miterlimit="10" d="m311 432.5 17.6-5.2-5.1 17.7 5.1 17.6-17.6-5.1-17.7 5.1 5.2-17.6-5.2-17.7z"/></g><g clip-path="url(#b)"><path fill="#000" stroke="#fff" stroke-miterlimit="10" d="m125 345.5 31.4 17.2-31.5 17.2-17.2 31.5-17.2-31.5L59 362.7l31.5-17.2 17.2-31.5z"/></g><path stroke="#000" d="M345.6 201.2C414 238.9 472.8 278.9 512.4 313a265 265 0 0 1 44 45.7 61 61 0 0 1 8.9 17.6q2.1 7.8-.7 13-3 5.1-10.6 7.4a61 61 0 0 1-19.6 1.8c-16-.7-37.1-5-62.2-12.7-50-15.3-115.1-43.7-183.6-81.4s-127.2-77.8-166.8-112A265 265 0 0 1 78 146.9a61 61 0 0 1-9-17.6q-2.1-7.7.7-12.9 3-5.2 10.6-7.5a61 61 0 0 1 19.6-1.7c16 .6 37.1 5 62.2 12.7 50 15.3 115.1 43.6 183.6 81.4Z"/><path stroke="#000" d="M325.4 237.9c68.4 37.7 127.1 77.7 166.8 111.9 19.8 17 34.8 32.6 43.9 45.7a61 61 0 0 1 9 17.6q2 7.7-.8 13-2.8 5-10.5 7.4a61 61 0 0 1-19.7 1.8c-15.9-.7-37-5.1-62-12.8-50.1-15.3-115.3-43.6-183.7-81.4-68.5-37.7-127.2-77.7-166.8-111.9a265 265 0 0 1-44-45.7 61 61 0 0 1-9-17.6q-2-7.7.8-13 2.9-5 10.5-7.4a61 61 0 0 1 19.7-1.8c16 .7 37.1 5.1 62.1 12.8 50 15.3 115.2 43.6 183.7 81.4Z"/><path stroke="#000" d="M305.1 274.5c68.5 37.8 127.2 77.8 166.8 112a265 265 0 0 1 44 45.7 61 61 0 0 1 9 17.6q2 7.6-.8 12.9-2.9 5.2-10.5 7.5a61 61 0 0 1-19.7 1.7c-15.9-.6-37.1-5-62.1-12.7-50-15.3-115.2-43.6-183.6-81.4C179.7 340.1 121 300.1 81.4 266a265 265 0 0 1-44-45.7 61 61 0 0 1-9-17.6q-2-7.8.8-13 2.9-5.1 10.5-7.4a61 61 0 0 1 19.7-1.8c15.9.7 37 5 62.1 12.7 50 15.3 115.2 43.7 183.6 81.4Z"/><circle cx="131.5" cy="104.5" r="15.5" fill="#b9ff66"/><circle cx="421" cy="435" r="10" fill="#b9ff66"/><circle cx="81.5" cy="64.5" r="23.5" fill="#000"/><path fill="#000" d="M306 383.6c-6.3 2.1-13.5-2.1-16-9.5l-39-114.3 22.7-7.8 39 114.4c2.6 7.4-.5 15-6.7 17.2"/><path fill="#000" d="M302.6 385q-2.9 0-5.6-1.3a16 16 0 0 1-7.9-9.4l-39-114.2q-.3-.8.5-1.1l22.8-7.8h.7q.3.2.4.5l39 114.5c2.7 7.7-.6 15.9-7.3 18.2q-1.7.6-3.6.6M252 260.4l38.7 113.4c1.2 3.7 3.8 6.8 7 8.3q4 2 7.9.7c5.8-2 8.6-9.2 6.3-16L273.2 253z"/><path fill="#b9ff66" d="M269.7 153.4 196 206l-28.7 29.8-11.3 20c-2.3 3.5-1 11.5 3.2 19.6 4.1 8 10 13.6 14 13.9h-.1l21.6 2.4 40.6-6.5 86-30.8 107 18.4h.7c-26.9-5-63.2-41-89.5-91.7S304.8 80 316.3 55.4l-46 96.7z"/><path fill="#fff" d="M446.7 270.6c26.5-13.7 21.3-76-11.4-139s-80.7-103-107.1-89.3-21.3 76 11.4 139 80.7 103 107.1 89.3"/><path fill="#000" d="M435.1 274.2c-11.5 0-25.4-6.4-40.3-19a244 244 0 0 1-56-73.8c-24.1-46.3-34-93.9-25.3-121.1q4.3-13.7 14.4-18.9c13.1-6.7 31.6-1 52.2 16.2a244 244 0 0 1 56 73.8c24.1 46.4 34 94 25.3 121.2q-4.5 13.6-14.4 18.8a25 25 0 0 1-11.9 2.8M339.8 40.4q-6 0-11.1 2.6-9.4 4.8-13.5 17.9c-8.6 26.8 1.3 73.8 25 119.8 32.5 62.6 80 102.6 106 89.3q9.4-4.8 13.6-18c8.5-26.7-1.3-73.8-25.1-119.8-28.3-54.4-67.9-91.8-94.9-91.8"/><path fill="#000" d="M435.1 274.2c-11.5 0-25.4-6.4-40.3-19a244 244 0 0 1-56-73.8c-24.1-46.3-34-93.9-25.3-121.1q4.3-13.7 14.4-18.9c8.8-4.5 20.3-3.4 33.2 3.3a140 140 0 0 1 39 32.7q.4.6-.1 1.2-.7.5-1.2 0C372.2 48 345.4 34.3 328.7 43q-9.4 4.8-13.5 17.9c-8.6 26.8 1.3 73.8 25 119.8 28.3 54.4 68 91.8 94.9 91.8q6 0 11.1-2.5 9.4-4.8 13.5-18c8.6-26.7-1.3-73.8-25-119.8Q423.8 111.5 411 94a1 1 0 0 1 .2-1.2q.8-.4 1.2.2a296 296 0 0 1 23.8 38.5c24 46.4 34 94 25.2 121.2q-4.5 13.6-14.4 18.8a25 25 0 0 1-11.9 2.8"/><path fill="#b9ff66" d="M386.8 190.3c6-3.1 5-17.5-2.7-32.1-7.5-14.6-18.6-23.9-24.8-20.7-6 3.2-5 17.6 2.7 32.2 7.5 14.6 18.6 23.8 24.8 20.6"/><path fill="#b9ff66" d="M384 191.8c-6.6 0-16-8.6-22.8-21.8-5.7-10.9-8-22-5.9-28.5q1.2-3.4 3.6-4.8c6.7-3.4 18.1 6 26 21.1 5.6 11 8 22.1 5.9 28.6q-1.2 3.5-3.7 4.7-1.4.7-3 .7m-22-54q-1.2-.1-2.3.4-2 1-2.8 3.8c-1.9 6 .3 16.7 5.8 27.2 7.2 14 18 23.3 23.6 20.4q2-1 2.8-3.7c2-6.1-.3-16.8-5.7-27.3-6.4-12.2-15.4-20.9-21.4-20.9"/><path fill="#000" d="M429.2 259.6c-10.1 0-22.3-5.7-35.4-16.6a214 214 0 0 1-49-64.6c-21-40.6-29.7-82.2-22.1-106.1q3.8-12 12.6-16.6c13.4-6.8 33 1 54 21.7q.6.7 0 1.2t-1.1 0c-20.5-20-39.5-27.9-52.1-21.3q-8.1 4.2-11.8 15.5c-7.5 23.4 1.1 64.6 22 104.8 24.6 47.6 59.2 80.3 82.8 80.3q5.3 0 9.8-2.3 8-4.2 11.8-15.5c7.4-23.5-1.2-64.6-22-104.8a256 256 0 0 0-21-33.9 1 1 0 0 1 .2-1.2q.7-.3 1.2.2a258 258 0 0 1 21.2 34.1c21 40.6 29.6 82.2 22 106q-3.8 12-12.6 16.6a23 23 0 0 1-10.5 2.5"/><path fill="#000" d="M194.8 292.5h-.1l-21.7-2.3-.3-.1c-4.5-.8-10.1-6.4-14.2-14.3-4.4-8.4-5.7-16.5-3.3-20.3v-.2l11.3-20h.1l28.7-29.9.1-.1 73.6-52.5L315.5 55q.2-.3.5-.4h.7q.7.4.4 1.1c-11.8 25.3-2.5 75.5 23.1 125s61.4 86.1 89 91.2q.6 0 .7 1-.1.6-.9.7h-.9l-106.7-18.3-85.8 30.7h-.2zm-21.1-4 21 2.3 40.4-6.5 86-30.7q.2 0 .4 0l96.1 16.4c-26-11.4-56.3-45-78.8-88.5-22.4-43.2-32.4-87-26.9-114.7l-41.4 87-.3.2-73.6 52.7-28.6 29.6-11.3 20c-2 3.2-.7 11 3.3 18.7 3.8 7.5 9.4 13.1 13.3 13.4z"/><path fill="#fff" d="m269.8 153 46.5-97.7c-11.5 24.8-3 75 23.2 125.7 26.3 50.9 62.6 86.8 89.5 91.7h-.7l-106.8-18.3-2.5-.4c-12.4-2.2-29-18.4-40.8-41.4-12.2-23.6-14.3-47.2-9-58.4z"/><path fill="#000" d="M429 273.6h-.9l-106.7-18.3-2.5-.5c-13.1-2.3-29.8-19-41.5-41.8-13.2-25.7-14-48.7-8.9-59.1l.6-1.2L315.6 55q0-.3.5-.4h.6q.8.4.5 1.2c-11.8 25.2-2.5 75.5 23.1 124.9s61.4 86.2 89 91.2q.7.1.6 1 0 .6-.9.7M311.8 66.8l-41.2 86.7-.6 1.1c-5 10.4-3.5 33.5 9 57.6 11.4 22.3 27.6 38.7 40.2 41l2.5.3 95.9 16.5c-26-11.4-56.3-45-78.9-88.5-22.3-43.2-32.3-87-26.9-114.7M193.6 292.4l-20.6-2.2-.4-.1c-4.4-.7-10-6.4-14.2-14.3-4.3-8.4-5.6-16.5-3.2-20.3v-.2l11.3-20q.4-.6 1.2-.2.6.4.3 1.1l-11.3 20v.2c-2 3.1-.7 11 3.3 18.6 3.8 7.5 9.4 13.1 13.3 13.4l.3.1 20 2.2q.8 0 .8 1-.1.6-.8.7"/><path fill="#fff" d="M195 291.5c-6.7-.4-16-9.9-22.8-23-7.1-13.7-8.8-28-4.4-33.1L156 255.7v.2c-2.3 3.4-1 11.4 3.2 19.5 4.1 8 10 13.6 14 13.9h-.1z"/><path fill="#000" d="M195 292.4h-.6l-21.4-2.2-.4-.1c-4.4-.7-10-6.4-14.2-14.3-4.3-8.4-5.6-16.5-3.2-20.3v-.2l10.3-17.9q.7-1.6 1.5-2.7.5-.5 1.2-.1t.2 1.1l-1.4 2.5c-2.3 6.2 0 18.4 5.9 29.9 6.4 12.5 15.3 21.6 21.6 22.4h.4q.8.2.8 1t-.7.9m-21.4-3.9 15 1.5a56 56 0 0 1-17.2-21 55 55 0 0 1-6.9-26.3l-7.8 13.6c-2 3.2-.7 11 3.3 18.7 3.8 7.5 9.4 13.1 13.3 13.4z"/><path fill="#000" d="m233.8 285.4 1.7-.4c-9.3 2-24-12.1-34.4-32.1-10.6-20.5-12.6-40.9-5-47l-1 1-27.3 28.3c-4.4 5-2.8 19.4 4.4 33.3 7 13.4 16.8 23 23.5 23z"/><path fill="#000" d="M195.6 292.4c-7 0-17-9.6-24.2-23.4-7.2-14.1-9-28.9-4.2-34.3l26.7-27.7q.7-1 1.6-1.7.5-.4 1.2.1.5.7 0 1.2l-1.6 1.6c-5.4 7.3-2.7 26 6.8 44.3 10.3 19.8 24.6 33.4 33.4 31.8q.9-.2 1 .6.2.7-.6 1l-1.7.4-38.2 6zm-4-80.6-23.1 24c-4.3 5-2.4 19.1 4.5 32.4 6.7 13 16.3 22.4 22.6 22.4l33.7-5.3c-9-3.2-20.3-15.3-29-32-8.2-15.9-11.3-32-8.7-41.5M359.3 137.5c-6.1 3.1-5.2 17.6 2.6 32.1 13.1 24.3 23.6 21.4 24.8 21l-22.5 18.2a258 258 0 0 1-32.6-62.5z"/><path fill="#000" d="M364.2 209.6h-.1l-.6-.3a261 261 0 0 1-32.6-63.3q0-.3.5-.5l27.7-8.8q.8 0 1 .5.2.8-.3 1.1-2 1-3 4c-1.8 6.1.5 17 6 27 12.8 23.7 22.6 21 23.7 20.6q.6-.2 1 .4.3.6-.2 1.1l-22.6 18zm-31.4-62.8a266 266 0 0 0 31.6 60.7l19.5-15.7c-4.4-.2-12.9-3.6-22.7-21.8-5.7-10.5-8-21.6-6-28.3l1-2.3zM475.2 81.6a36.6 36.6 0 1 0-33.9-64.8 36.6 36.6 0 0 0 33.9 64.8"/><path fill="#fff" d="M441.6 41.2q2.6-3.6 7.1-4 3.3-.4 6.2 1.3 1.4 1 2.6 2.3.9-1.5 2.2-2.8a9 9 0 0 1 5.6-2.7q4.6-.5 8 2.4a12 12 0 0 1 3.8 7.8q.6 4.6-2.7 9.6-3.2 4.4-8.4 9.8l-3.8 4.1q-.6.6-1.4.8-.9 0-1.6-.4l-4.7-3.3q-6.3-4-10.3-7.7a14 14 0 0 1-4.7-8.8q-.5-4.6 2-8.4"/><path fill="#b9ff66" d="M576.7 83.6A33.6 33.6 0 1 0 529.2 36a33.6 33.6 0 0 0 47.5 47.5"/><path fill="#b9ff66" d="M553 94.3a34.5 34.5 0 1 1 .1-69 34.5 34.5 0 0 1-.1 69m0-67.2a32.7 32.7 0 1 0 0 65.5 32.7 32.7 0 0 0 0-65.5"/><path fill="#000" d="M562 63.2q-2.8.1-4.5 2.3L546 61v-1.3l11.6-5.4a6 6 0 0 0 4.4 2 5.9 5.9 0 0 0 0-11.7 6 6 0 0 0-5.9 5.9v.8l-11.5 5.3a6 6 0 0 0-4.4-2 5.9 5.9 0 0 0 0 11.8q2.9-.1 4.6-2.3l11.4 4.4v.4c0 3.3 2.5 6 5.8 6a5.9 5.9 0 0 0 0-11.8M562.5 190a33.8 33.8 0 1 0-38.4-55.3 33.8 33.8 0 1 0 38.4 55.3"/><path fill="#fff" d="m534.9 178.4-5-26.8c-.2-1.4 1-2.5 2.4-2.1l29.2 8.2c1.4.5 1.8 2.4.6 3.3l-24.3 18.5c-1 .9-2.7.3-3-1.1"/><path fill="#b9ff66" d="M543 299.6a38 38 0 1 0-33.2-68.3c-19 9.2-27 32-17.8 50.9a38 38 0 0 0 51 17.4"/><path fill="#000" d="M526.2 304.3q-6 0-12.3-2a38.4 38.4 0 0 1-24.4-49.1 39.3 39.3 0 0 1 49.4-24.7 38.4 38.4 0 0 1 24.5 49.2 39 39 0 0 1-37.2 26.6m.4-76a38 38 0 0 0-35.6 25.4 37 37 0 0 0 23.4 47 37.5 37.5 0 0 0 47.3-23.5 37 37 0 0 0-23.4-47 36 36 0 0 0-11.7-2"/><path fill="#000" d="M545.8 259.3c-.4 9.5-16.4 31.7-20.3 37a1 1 0 0 1-1.5-.1c-2.5-4-10.5-17.1-14.7-27.8q-2.6-6.5-2.6-10.7a19.6 19.6 0 1 1 39.1 1.6"/><path fill="#b9ff66" d="M532.6 264.8a9 9 0 1 0-12.7-12.7 9 9 0 0 0 12.7 12.7"/><defs><clipPath id="a"><path fill="#fff" d="M293 427h36v36h-36z"/></clipPath><clipPath id="b"><path fill="#fff" d="m107.7 313 49.7 49.7-49.7 49.7L58 362.7z"/></clipPath></defs></svg>