<svg xmlns="http://www.w3.org/2000/svg" width="125" height="48" fill="none"><g fill-rule="evenodd" clip-rule="evenodd" style="mix-blend-mode:luminosity"><path fill="#f90" d="M76.7 37.8A51 51 0 0 1 50 45a52 52 0 0 1-32.4-11c-.7-.5-.1-1.2.7-.8a72 72 0 0 0 57.2 3.1c1.2-.4 2.2.7 1 1.5"/><path fill="#f90" d="M79.6 34.8c-.9-1-6-.5-8.3-.3q-1.1 0-.2-.8c4-2.6 10.8-1.8 11.6-1s-.2 6.9-4 9.7q-1.2.6-1-.4c1-1.9 2.9-6.2 2-7.2"/><path fill="#000" d="M71.4 15.6v-2.5q0-.6.7-.6h12.6q.7 0 .7.6v2.1q0 .6-1 1.6L78 25.1q3.8-.3 7.1 1.3.7.4.7 1V30q-.1.8-1 .6c-3.8-1.8-9-2-13.2 0q-.7.1-.9-.5v-2.6q-.1-.6.5-1.7l7.5-9.6h-6.6q-.7 0-.7-.6M25.6 31.1h-3.9q-.5 0-.6-.5V13.2q0-.6.7-.7h3.6q.5 0 .7.6v2.3q1.5-3.3 5-3.2 3.6 0 5 3.2 1.7-3.3 5.3-3.2c1.6 0 3.4.6 4.4 1.9 1.2 1.4 1 3.6 1 5.4v11q0 .5-.7.6h-3.9q-.6 0-.7-.6V18q-.5-1.6-2.3-1.5-1.6.1-2.3 1.4-.4 1.7-.3 3.4v9.2q-.1.5-.8.6H32q-.6 0-.7-.6v-9.2c0-2 .4-4.8-2.4-4.8s-2.6 2.8-2.6 4.8v9.2q0 .5-.7.6M96.2 12.2c5.7 0 8.8 4.3 8.8 9.8 0 5.3-3.4 9.5-8.8 9.5s-8.6-4.3-8.6-9.7 3.1-9.6 8.6-9.6m0 3.5c-2.7 0-3 3.4-3 5.5 0 2.2 0 6.7 3 6.7s3.1-3.7 3.1-5.9q.1-2.4-.5-4.6-.7-1.7-2.5-1.7M112.3 31.1h-3.8q-.5 0-.6-.6V13.1q0-.5.7-.6h3.5q.6 0 .7.5v2.7q1.6-3.6 5.3-3.5 2.7-.1 4.5 2c1 1.4 1 3.7 1 5.4v11q-.1.5-.8.5H119q-.7 0-.7-.5V21c0-1.9.3-4.7-2.4-4.7q-1.5.1-2.2 1.4a7 7 0 0 0-.6 3.3v9.4q0 .5-.8.6M61.4 22.8q.2 1.9-.7 3.6-1 1.5-2.7 1.6-2.2-.1-2.3-2.5c0-2.9 3-3.4 5.7-3.4zm3.9 8.3q-.5.3-1 0c-1.2-.9-1.4-1.3-2.1-2.2a8 8 0 0 1-6.3 2.5c-3.3 0-5.8-1.8-5.8-5.3 0-2.8 1.7-4.6 4.1-5.6 2-.8 5-1 7.2-1.1v-.5q.1-1.3-.5-2.4t-2.1-1c-1.5 0-2.8.8-3 2.1q-.2.5-.8.6l-3.7-.3q-.5 0-.5-.7c.8-4 4.9-5.2 8.5-5.2 1.9 0 4.3.4 5.8 1.7 1.8 1.5 1.7 3.6 1.7 5.8v5.3c0 1.6.7 2.3 1.4 3.1q.4.5 0 1zM11.3 22.8q.2 1.9-.7 3.6-1 1.6-2.7 1.6-2.3-.1-2.3-2.5c0-2.9 2.9-3.4 5.7-3.4zm3.8 8.3q-.4.3-.9 0c-1.2-.9-1.5-1.3-2.2-2.2a8 8 0 0 1-6.3 2.5C2.5 31.4 0 29.6 0 26c0-2.8 1.7-4.6 4-5.6 2.2-.8 5-1 7.3-1.1v-.5q.1-1.3-.5-2.4-.9-1-2.1-1c-1.5 0-2.8.8-3.1 2.1q0 .5-.7.6L1.2 18q-.5 0-.6-.7c.9-4 5-5.2 8.6-5.2 1.9 0 4.3.4 5.8 1.7 1.8 1.5 1.6 3.6 1.6 5.8v5.3c0 1.6.8 2.3 1.5 3.1q.4.5 0 1z"/></g></svg>