<svg xmlns="http://www.w3.org/2000/svg" width="127" height="48" fill="none"><g clip-path="url(#a)" style="mix-blend-mode:luminosity"><path fill="#0d0c22" fill-rule="evenodd" d="M125.6 30.6a11.6 11.6 0 0 1-16.1 3.8c-1 .6-3 2-5.4 1.9-5.3-.4-7.2-7.1-7.2-7.1s-1.6.5-2.5.5c0 2-1.9 6.7-7 6.6-5.9 0-7-7.7-7-7.7q.2.2-2.8 1.4c0-1.5 0 6-7 6.2-5.5 0-7-7.8-7-7.8s-1 1-2.8 1.2c.1-1.5 0 6.6-7 6.6-4.7 0-6.3-4.8-6.2-5.5.1-.9-1.6 5.6-6.2 5.5-1.9 0-3.3-1.3-4.2-2.9-1.1 1.2-2.9 2.9-4.8 2.9-3.4 0-5-2.6-4.7-9.9 0-.8 0-1.2-1-1.3l-1.8-.4c-.2.6-2 11.4-7.9 11.6-2 0-3-1.5-4-2.6a7 7 0 0 1-5.7 2.7C3 36.3 0 33 0 29.3c0-3.9 3-7 7.3-7 .8 0 1 .1 1.7.3-1.4-11.7 2-13.5 5-13.5 2.8 0 7.7 6 .8 20.9 1.6 4.4 4.9 4.2 6.5-5 .3-1.9-.6-4.4.8-4.7 2.4-.7 2.7 1.2 3.8 1.6q1.6.3 3.1.5 3 .4 2.5 3.4c-.3 2.7-.8 6.6.8 7 1.1.4 3.2-1.7 3.5-2.8.4-1.1.5-1.5.5-2.3q0-2.6.4-4.5.2-.8 1-.8c.6 0 1.6-.2 2 .1q.7.4.4 1.8c-.6 14.8 4.6 7.4 6.1 1.5-.5-6.7-.1-16.6 4.6-16.7 2.5-.1 3.6 1.6 3.7 3 .3 3.6-1.6 9.7-4 13.8-1.5 8.4 6.1 10 7.4 3.4-2-.9-4.2-4.3-2.4-6 1-.9 5 .4 5.1 3.4 2-.5 2.3-1.5 2.4-1.3-.6-6.7 0-16.2 4.6-16.3 2.5-.1 3.6 1.6 3.7 3 .3 3.6-1.5 9.7-4 13.8-1.5 8.4 6.2 10 7.4 3.4-1.5-.3-4.6-4-2.8-6 1-1 5 1.2 5.5 3.5 2-.5 2.2-1.5 2.3-1.3-.6-6.7 0-16.1 4.7-16.3 2.4-.1 3.5 1.6 3.6 3 .4 3.6-1.5 9.7-4 13.8-1.5 8.4 6.2 10 7.4 3.4-2-.3-5-4.2-2.6-6.1 1-.8 4.5 1.2 5.3 3.6q1.9-.2 2-.5c-1.8-7.8-.4-17.3 4.7-17.3 2.7 0 5.4 1.3 4.3 8.8-1.2 7-5.2 10-5.2 10.1.2.9 2.3 8 7.5 4.3l-.7-1.8c-.8-4 .9-8.4 5.5-9 2.7-.5 5.2.7 5.6 3.2.6 4.3-3.7 7.3-5.3 8-.8-.4 6.6 3.8 11-4.6q.3-.6 1-.2c.2.2 1.8 1.5 1 2.7M10.5 28.3l-.9-2.5q-1-1-2.6-.8c-2.6 0-4 2-4 4.3s1.6 4.3 4.1 4.3q3.5-.2 4.4-3.2zm3.4-16.1c-1.8 0-2.4 3.8-2.3 7 .1 2.8 1 5.3 1.5 6.5l.2.2c3-6 1.8-13.7.6-13.7m37.2.1c-2.3-.2-2.3 8.3-2 10.2 1.1-1.7 3.2-9.7 2-10.2m16.8 0c-2.3-.2-2.3 8.3-2 10.2 1.2-1.7 3.3-9.7 2-10.2m16.7.1c-2.3-.2-2.3 8.3-2 10.2 1.2-1.7 3.3-9.7 2-10.2m16.4-.6c-3.5.7-2.7 11.3-2.2 13.1 4.3-5.1 4.4-13.3 2.2-13m13.5 13.3q-.5-1-1.7-1c-1.8.3-3.6 2.3-2.9 5.3l.5 1.3c4-2.4 4.4-4.3 4.1-5.6m-76-5q-.8 0-1.5-.5t-1-1a2 2 0 0 1-.1-1.3q0-.7.7-1.2.5-.5 1.3-.7.8 0 1.5.2.8.3 1.2.8a2 2 0 0 1 .2 2.2l-.5.7q-.5.4-.9.5-.4.2-1 .2" clip-rule="evenodd"/></g><defs><clipPath id="a"><path fill="#fff" d="M0 0h126.4v48H0z"/></clipPath></defs></svg>