<svg xmlns="http://www.w3.org/2000/svg" width="129" height="48" fill="none"><g clip-path="url(#a)" style="mix-blend-mode:luminosity"><path fill="#33475b" d="M13.9 13.1v9H4.5v-9H0v21.7h4.5V26h9.4v8.8h4.5V13.1zM32.7 27.8q0 1.4-1.1 2.3a4 4 0 0 1-2.6 1q-1.6 0-2.6-1t-1.1-2.3v-9.3H21v9.3q0 2.9 2.4 5 2.3 2 5.6 2 3.1 0 5.6-2a7 7 0 0 0 2.3-5v-9.3h-4.2zM64 19.5c0-2 1.5-2.6 3-2.6 1.3 0 3 .9 4 2l2.8-3a9 9 0 0 0-6.5-2.8c-4.6 0-7.9 2.4-7.9 6.4 0 7.3 10.1 5 10.1 9 0 1.3-1.3 2.5-3 2.5-2.4 0-3.3-1.1-4.4-2.3l-3 2.9q2.9 3.2 7.2 3.2c4.4 0 8-2.4 8-6.2 0-8.1-10.2-5.6-10.2-9.1M126.7 31.3c-2.5 0-3.2-1-3.2-2.4v-6.5h4V19h-4v-4.4l-4.3 1.7v13.3c0 3.4 2.7 5.1 6.3 5.1l1.7-.1 1-3.4zM48.8 18.6a7 7 0 0 0-5 1.8v-7.2h-4.2v13.3c0 5 4 8.3 8.6 8.3 5 0 9.4-3.4 9.4-8 0-4.7-4-8.2-8.8-8.2m0 12.4q-1.5 0-2.7-.7a4 4 0 0 1-1.8-1.9q-.5-1.2-.2-2.5t1.3-2.2a5 5 0 0 1 2.4-1.1q1.6-.3 2.8.2 1.5.5 2.2 1.6.8 1 .8 2.4a4 4 0 0 1-1.4 3Q50.7 31 48.8 31M95 26.5c0-4.6-4.5-8-9.5-8a8.4 8.4 0 0 0-8.6 8.3V40H81v-7.1a7 7 0 0 0 5 1.7c4.7 0 8.8-3.5 8.8-8m-4 0a4 4 0 0 1-1 2.3q-.7 1.1-2 1.6-1.5.4-2.9.3a5 5 0 0 1-2.4-1.2 4 4 0 0 1-1.3-2.2q-.3-1.3.2-2.5t1.8-1.9a5 5 0 0 1 6 .5 4 4 0 0 1 1.5 3"/><path fill="#ff7a59" d="M108.6 18.3v-3.7q.8-.3 1.4-1t.5-1.6q0-1.3-1-2.1t-2.3-.9q-1.5 0-2.4.9-1 .9-1 2v.1q0 .8.6 1.5.5.8 1.4 1.1v3.7q-2.5.4-4.4 1.8l-11.6-8 .1-.8a3 3 0 0 0-.6-1.9q-.7-.8-1.6-1.2t-2.2-.1q-1 .1-1.8.8t-1 1.7a3 3 0 0 0 .2 1.9q.4.8 1.3 1.4a4 4 0 0 0 3.9.2l11.4 7.8Q98 24 97.9 26.6q0 2.5 1.7 4.6l-3.5 3h-.8q-1-.1-1.7.4-.8.5-1.1 1.2t-.2 1.5.8 1.4 1.6.7q1 .1 1.7-.2a3 3 0 0 0 1.4-1q.5-.6.5-1.4 0-.4-.2-.8l3.5-3q1.7 1.1 3.8 1.5a10 10 0 0 0 7.8-1.8q1.7-1.3 2.5-3a7 7 0 0 0-.4-7.2q-1.1-1.6-2.8-2.8a10 10 0 0 0-3.9-1.4m-1.4 12.4q-1.5 0-2.7-.7a4 4 0 0 1-1.7-2q-.6-1.1-.3-2.4a4 4 0 0 1 1.3-2.1 5 5 0 0 1 2.5-1.2q1.4-.2 2.7.3t2.1 1.5q.9 1 .8 2.4a4 4 0 0 1-1.4 3 5 5 0 0 1-3.3 1.2"/></g><defs><clipPath id="a"><path fill="#fff" d="M0 0h128.6v48H0z"/></clipPath></defs></svg>