<svg xmlns="http://www.w3.org/2000/svg" width="126" height="48" fill="none"><g clip-path="url(#a)" style="mix-blend-mode:luminosity"><path fill="#d81f26" d="M17.2 38q-2.8.4-5.8.7L5.4 23v16.4q-2.8.2-5.4.6V10h5L12 27V10h5.3zm10.4-17 7.1-.1v4.7h-7v7l9.3-.5v4.6l-14.7 1V10H37v4.7h-9.4zm29-6.3h-5.4v21.6h-5.3V14.7h-5.5V10h16.3zm8.7 6h7.2v4.7h-7.2V36H60V10h14.7v4.7h-9.5zm18.1 11.2q4.5 0 9 .4v4.6q-7-.4-14.3-.6V10h5.3zM97 37.2l5.2.4V10h-5.2zM125.2 10l-6.7 14.3 6.7 15.7-5.9-.8-3.8-8.7-3.9 8-5.7-.7 6.9-13.7-6.2-14.1h5.7l3.5 7.9 3.7-7.9z"/></g><defs><clipPath id="a"><path fill="#fff" d="M0 0h125.2v48H0z"/></clipPath></defs></svg>