<svg xmlns="http://www.w3.org/2000/svg" width="146" height="48" fill="none"><g fill="#000" clip-path="url(#a)" style="mix-blend-mode:luminosity"><path d="M50.7 34.8V20.2h.3l12 14.6h3.7V13.4h-4.2v14.5h-.3l-12-14.5h-3.7v21.4zm27.8.3c5.6 0 9-3.1 9-8.4s-3.4-8.5-9-8.5c-5.4 0-8.9 3.2-8.9 8.5s3.4 8.4 9 8.4m0-3Q74 32 74 26.6q.1-5.2 4.6-5.4 4.5.1 4.6 5.4 0 5.2-4.6 5.3m12.7-17.5v4h-2.9v3h3v8.8c0 3.2 1.6 4.4 5.9 4.4l2.2-.1v-2.9H98q-2.6.1-2.6-2.2v-8h4v-3h-4v-4zM102 34.8h4.2V18.6h-4.2zm2-19q2.4-.2 2.6-2.1-.2-2-2.5-2.2c-1.4 0-2.5 1-2.5 2.2s1.1 2.2 2.5 2.2m13.6 19.3c5.6 0 9-3.1 9-8.4s-3.4-8.5-9-8.5c-5.4 0-8.9 3.2-8.9 8.5s3.4 8.4 9 8.4m0-3q-4.5-.1-4.6-5.4.1-5.2 4.6-5.4 4.5.1 4.6 5.4-.1 5.2-4.6 5.3m11.4 2.7h4.2v-9.4q.2-3.8 4-4 3.9 0 3.8 3.8v9.6h4.1V24.3q0-6-6.3-6-4.2 0-5.5 2.9h-.3v-2.6h-4z"/><path fill-rule="evenodd" d="M6.4 12c1.3.9 1.7.8 4 .7l21.4-1.1c.5 0 .1-.5 0-.5l-3.6-2.3c-.7-.4-1.6-1-3.4-.8L4.1 9.3q-1.2.1-.6.7zm1.3 4.5v20q0 1.5 2 1.3l23.6-1.2c1.4 0 1.5-.8 1.5-1.7V15.1q0-1.4-1.2-1.3L9 15.1q-1.4 0-1.3 1.4m23.3 1q.3 1-.7 1.3l-1.1.2v14.8q-1.5.7-2.7.7c-1.2 0-1.5-.4-2.4-1.4l-7.4-10.3v10l2.3.5s0 1.2-1.9 1.2l-5.2.2c-.1-.2 0-.9.5-1l1.4-.4V20.1l-1.9-.1c-.1-.6.2-1.5 1.3-1.5l5.6-.4 7.8 10.5v-9.3l-2-.2c-.2-.7.5-1.3 1.2-1.3zM2.4 7.5 24 6c2.6-.2 3.3 0 5 1l6.8 4.3c1.2.7 1.6 1 1.6 1.7v23.5c0 1.5-.6 2.4-2.7 2.5L9.6 40.4c-1.6.1-2.4-.1-3.2-1l-5.1-5.9Q-.1 32 0 30.7V9.8q-.2-2 2.4-2.3" clip-rule="evenodd"/></g><defs><clipPath id="a"><path fill="#fff" d="M0 0h145.6v48H0z"/></clipPath></defs></svg>