<svg xmlns="http://www.w3.org/2000/svg" width="111" height="48" fill="none"><g clip-path="url(#a)" style="mix-blend-mode:luminosity"><path fill="#2d8cff" fill-rule="evenodd" d="M90 20.6q.5 1 .5 2.2l.1 1.1v8.8c.2 1.8 1.7 3.1 3.7 3.2l1.3.1V22.8q0-1.2.6-2.2t1.9-1.6a6 6 0 0 1 5 0q1 .6 1.7 1.6t.6 2.2v8.8l.2 1.1c0 1.8 1.6 3.1 3.6 3.2l1.3.1V22.8q0-3.6-3-6.2a11 11 0 0 0-11.1-1.8 10 10 0 0 0-3.3 2.2q-1.4-1.5-3.4-2.2a11 11 0 0 0-9.6.7c-1-1-3.2-1.5-4.4-1.5v22H77q3.3-.5 3.7-3.3v-8.8l.1-1.1q0-1.2.6-2.2t1.9-1.6a6 6 0 0 1 5 0q1 .6 1.7 1.6M5 35.9l1.2.1h18.6v-1.1q-.5-2.9-3.7-3.2l-1.2-.1H8.7l14.9-13.2v-1.1q-.5-2.9-3.7-3.2h-1.3L0 14v1.1c.2 1.8 1.7 3.1 3.7 3.2l1.3.1H16L1.2 31.6l.1 1.1q.4 2.9 3.7 3.2m65.8-18.7q1.8 1.6 2.7 3.6a10 10 0 0 1 0 8.4 11 11 0 0 1-2.7 3.6c-2.3 2-5.5 3.2-8.7 3.2-3.3 0-6.5-1.2-8.8-3.2a10 10 0 0 1 0-15.6q1.7-1.5 4-2.4a14 14 0 0 1 13.5 2.4m-3.5 3.1q2.2 2 2.2 4.7t-2.2 4.7a8 8 0 0 1-5.2 1.9 8 8 0 0 1-5.3-2 6 6 0 0 1-2.2-4.6q0-2.6 2.2-4.7a8 8 0 0 1 5.3-1.9q3 0 5.2 2M36 14a14 14 0 0 1 8.8 3.2 10 10 0 0 1 0 15.6Q41 35.9 36 36c-3.3 0-6.5-1.2-8.8-3.2a10 10 0 0 1 0-15.6q1.8-1.5 4-2.4T36 14m5.3 6.3q2.1 2 2.1 4.7t-2.1 4.7a8 8 0 0 1-5.3 1.9 8 8 0 0 1-5.3-2 6 6 0 0 1-2.2-4.6q0-2.6 2.2-4.7a8 8 0 0 1 5.3-1.9q3.1 0 5.3 2" clip-rule="evenodd"/></g><defs><clipPath id="a"><path fill="#fff" d="M0 0h110.6v48H0z"/></clipPath></defs></svg>