<svg xmlns="http://www.w3.org/2000/svg" width="692" height="649" fill="none"><mask id="b" width="651" height="649" x="41" y="0" maskUnits="userSpaceOnUse" style="mask-type:alpha"><mask id="a" width="651" height="650" x="40.7" y="-.9" fill="#000" maskUnits="userSpaceOnUse"><path fill="#fff" d="M40.7-.9h651v650h-651z"/><path d="M366.6 161.7 387.1 0l-.2 162.9L427.4 5.2 407 166.8l60-151.5-40.5 157.9 78.5-143-60.2 151.6 96-132-78.7 143L573.6 74 478 205.7 603.5 102 491.8 220.5l137.7-87.2-125.8 103.8 147.7-69.4L513.6 255l155.1-50.4L521.1 274l160.3-30.7-155.2 50.4L689 283.4l-160.2 30.4L691.6 324l-162.8 10.3L689 364.7l-162.8-10.2 155.2 50.2L521 374.3l147.6 69.4-155-50.4 137.7 87.2-147.7-69.4L629.5 515l-137.7-87.4 111.7 118.8-125.6-104 95.7 131.9-111.5-118.8 78.7 142.7-96-131.9L505 617.8l-78.5-142.7L467 632.8l-60-151.5L427.4 643 387 485.1l.2 163-20.5-161.7-20.4 161.7v-163l-40.5 158 20.6-161.8-60 151.5 40.5-157.7-78.5 142.7 60.1-151.5-95.9 132 78.7-142.8-111.7 118.8 96-132-125.7 104 111.7-118.7L103.8 515 229.6 411 81.9 480.5l137.8-87.2-155.2 50.4 147.7-69.4-160.3 30.4L207 354.5 44.3 364.7l160.2-30.4L41.7 324l162.8-10.2-160.2-30.4L207 293.7 52 243.3 212.1 274 64.5 204.6 219.7 255 81.9 167.7l147.7 69.4-125.8-103.8 137.7 87.2L129.8 102l125.6 103.8-96-131.7 111.8 118.8-78.7-143 96 132-60.2-151.5 78.5 142.9-40.5-158 60 151.6L305.7 5.2 346.2 163V0z"/></mask><path stroke="#000" stroke-miterlimit="10" stroke-width="2" d="M366.6 161.7 387.1 0l-.2 162.9L427.4 5.2 407 166.8l60-151.5-40.5 157.9 78.5-143-60.2 151.6 96-132-78.7 143L573.6 74 478 205.7 603.5 102 491.8 220.5l137.7-87.2-125.8 103.8 147.7-69.4L513.6 255l155.1-50.4L521.1 274l160.3-30.7-155.2 50.4L689 283.4l-160.2 30.4L691.6 324l-162.8 10.3L689 364.7l-162.8-10.2 155.2 50.2L521 374.3l147.6 69.4-155-50.4 137.7 87.2-147.7-69.4L629.5 515l-137.7-87.4 111.7 118.8-125.6-104 95.7 131.9-111.5-118.8 78.7 142.7-96-131.9L505 617.8l-78.5-142.7L467 632.8l-60-151.5L427.4 643 387 485.1l.2 163-20.5-161.7-20.4 161.7v-163l-40.5 158 20.6-161.8-60 151.5 40.5-157.7-78.5 142.7 60.1-151.5-95.9 132 78.7-142.8-111.7 118.8 96-132-125.7 104 111.7-118.7L103.8 515 229.6 411 81.9 480.5l137.8-87.2-155.2 50.4 147.7-69.4-160.3 30.4L207 354.5 44.3 364.7l160.2-30.4L41.7 324l162.8-10.2-160.2-30.4L207 293.7 52 243.3 212.1 274 64.5 204.6 219.7 255 81.9 167.7l147.7 69.4-125.8-103.8 137.7 87.2L129.8 102l125.6 103.8-96-131.7 111.8 118.8-78.7-143 96 132-60.2-151.5 78.5 142.9-40.5-158 60 151.6L305.7 5.2 346.2 163V0z" mask="url(#a)"/></mask><g mask="url(#b)"><rect width="1152.8" height="702.9" x="-785.7" y="-38" fill="#000" rx="45"/></g><path fill="#b9ff66" d="m95.7 470.2 45.7 25-45.7 25-25 45.6-25-45.6-45.7-25 45.7-25 25-45.8z"/><path fill="#191a23" d="m217.1 243.7 81.7 44.5L217 333l-44.7 81.4-44.7-81.4-81.6-45 81.6-44.4 44.7-81.9z"/></svg>